<?xml version="1.0" encoding="UTF-8" standalone="no"?>
<!-- Created with Inkscape (http://www.inkscape.org/) -->

<svg
   xmlns:dc="http://purl.org/dc/elements/1.1/"
   xmlns:cc="http://creativecommons.org/ns#"
   xmlns:rdf="http://www.w3.org/1999/02/22-rdf-syntax-ns#"
   xmlns:svg="http://www.w3.org/2000/svg"
   xmlns="http://www.w3.org/2000/svg"
   xmlns:sodipodi="http://sodipodi.sourceforge.net/DTD/sodipodi-0.dtd"
   xmlns:inkscape="http://www.inkscape.org/namespaces/inkscape"
   width="1368.286"
   height="547.32623"
   id="svg2"
   sodipodi:version="0.32"
   inkscape:version="0.48.4 r9939"
   sodipodi:docname="free-electrons.svg"
   inkscape:output_extension="org.inkscape.output.svg.inkscape"
   inkscape:export-filename="/home/ehe/Dev/pelican/capitoledulibre-site/src/logos/free-electrons.png"
   inkscape:export-xdpi="9.8699999"
   inkscape:export-ydpi="9.8699999"
   version="1.0">
  <defs
     id="defs4">
    <inkscape:perspective
       sodipodi:type="inkscape:persp3d"
       inkscape:vp_x="0 : 526.18109 : 1"
       inkscape:vp_y="0 : 1000 : 0"
       inkscape:vp_z="744.09448 : 526.18109 : 1"
       inkscape:persp3d-origin="372.04724 : 350.78739 : 1"
       id="perspective10" />
  </defs>
  <sodipodi:namedview
     id="base"
     pagecolor="#ffffff"
     bordercolor="#666666"
     borderopacity="1.0"
     gridtolerance="10000"
     guidetolerance="10"
     objecttolerance="10"
     inkscape:pageopacity="0.0"
     inkscape:pageshadow="2"
     inkscape:zoom="1.2585088"
     inkscape:cx="684.14301"
     inkscape:cy="404.38277"
     inkscape:document-units="px"
     inkscape:current-layer="layer1"
     showgrid="false"
     inkscape:window-width="1855"
     inkscape:window-height="1056"
     inkscape:window-x="65"
     inkscape:window-y="24"
     inkscape:window-maximized="1" />
  <metadata
     id="metadata7">
    <rdf:RDF>
      <cc:Work
         rdf:about="">
        <dc:format>image/svg+xml</dc:format>
        <dc:type
           rdf:resource="http://purl.org/dc/dcmitype/StillImage" />
        <dc:title></dc:title>
      </cc:Work>
    </rdf:RDF>
  </metadata>
  <g
     inkscape:label="Layer 1"
     inkscape:groupmode="layer"
     id="layer1"
     transform="translate(16.28571,-132.75011)">
    <rect
       style="fill:#9999cc;fill-opacity:1;stroke:#000000;stroke-width:19.27363777;stroke-linecap:round;stroke-linejoin:round;stroke-miterlimit:4;stroke-dasharray:none;stroke-opacity:1"
       id="rect2389"
       width="1349.0123"
       height="528.05261"
       x="-6.6488914"
       y="142.38693"
       inkscape:export-xdpi="13.155146"
       inkscape:export-ydpi="13.155146" />
    <g
       id="g4833"
       transform="translate(0,-52)">
      <path
         transform="matrix(0.6856195,0,0,1.1314491,-15.24469,128.49793)"
         d="m 605.08139,267.97873 c 0,98.46791 -99.27122,178.29193 -221.72848,178.29193 -122.45727,0 -221.72849,-79.82402 -221.72849,-178.29193 0,-98.46792 99.27122,-178.291932 221.72849,-178.291932 122.45726,0 221.72848,79.824012 221.72848,178.291932 z"
         sodipodi:ry="178.29193"
         sodipodi:rx="221.72849"
         sodipodi:cy="267.97873"
         sodipodi:cx="383.35291"
         id="path3205"
         style="fill:#ffffff;fill-opacity:1;fill-rule:nonzero;stroke:#000000;stroke-width:11.65960598;stroke-linecap:butt;stroke-linejoin:miter;marker:none;marker-start:none;marker-mid:none;marker-end:none;stroke-miterlimit:4;stroke-dasharray:none;stroke-dashoffset:0;stroke-opacity:1;visibility:visible;display:inline;overflow:visible"
         sodipodi:type="arc" />
      <path
         sodipodi:nodetypes="cccc"
         id="path3203"
         d="M 268.98177,391.35838 C 252.70841,428.05805 237.73411,442.64733 214.72168,461.55761 C 207.4684,432.36961 204.66834,419.74287 208.63163,383.82215 C 223.39425,379.55951 239.87068,372.26328 268.98177,391.35838 z"
         style="fill:#f57f19;fill-opacity:1;fill-rule:evenodd;stroke:#000000;stroke-width:10.26935005;stroke-linecap:butt;stroke-linejoin:miter;stroke-miterlimit:4;stroke-dasharray:none;stroke-opacity:1" />
      <path
         sodipodi:nodetypes="cccc"
         id="path3168"
         d="M 394.20419,380.26642 C 402.81243,394.91183 446.41925,438.22359 448.16409,497.87203 C 449.5446,528.24454 397.94745,432.77754 391.09112,499.3798 C 395.43707,465.44364 391.0662,430.78334 394.20419,380.26642 z"
         style="fill:#000000;fill-opacity:1;fill-rule:evenodd;stroke:none;stroke-width:1px;stroke-linecap:butt;stroke-linejoin:miter;stroke-opacity:1" />
      <path
         sodipodi:nodetypes="cccc"
         id="path3170"
         d="M 100.74572,378.46787 C 93.831693,394.85239 58.807277,443.30729 57.405845,510.03883 C 56.297046,544.018 97.739198,437.21454 103.24609,511.72565 C 99.755482,473.75966 103.26611,434.98354 100.74572,378.46787 z"
         style="fill:#000000;fill-opacity:1;fill-rule:evenodd;stroke:none;stroke-width:1px;stroke-linecap:butt;stroke-linejoin:miter;stroke-opacity:1" />
      <path
         sodipodi:nodetypes="csssc"
         id="path3178"
         d="M 225.75041,628.47242 C 230.63286,647.59212 206.2925,655.58456 178.14647,660.20838 C 141.78247,666.18225 118.41229,650.36833 132.17004,618.70751 C 145.15642,588.82182 168.83111,564.97025 189.53887,585.34407 C 210.89549,606.3563 203.55114,601.02355 225.75041,628.47242 z"
         style="fill:#f57f19;fill-opacity:1;fill-rule:nonzero;stroke:#000000;stroke-width:9.66676617;stroke-linecap:butt;stroke-linejoin:miter;marker:none;marker-start:none;marker-mid:none;marker-end:none;stroke-miterlimit:4;stroke-dasharray:none;stroke-dashoffset:0;stroke-opacity:1;visibility:visible;display:inline;overflow:visible" />
      <path
         sodipodi:nodetypes="csssc"
         id="path3181"
         d="M 254.01444,639.5216 C 248.82764,659.83314 274.68527,668.32379 304.5858,673.23584 C 343.21657,679.58209 368.04354,662.78241 353.42821,629.14799 C 339.63231,597.39935 314.48184,572.06098 292.48325,593.70482 C 269.79535,616.02687 277.59752,610.36168 254.01444,639.5216 z"
         style="fill:#f57f19;fill-opacity:1;fill-rule:nonzero;stroke:#000000;stroke-width:10.26935005;stroke-linecap:butt;stroke-linejoin:miter;marker:none;marker-start:none;marker-mid:none;marker-end:none;stroke-miterlimit:4;stroke-dasharray:none;stroke-dashoffset:0;stroke-opacity:1;visibility:visible;display:inline;overflow:visible" />
      <path
         id="path3245"
         d="M 175.00209,352.30112 C 170.03126,350.61212 167.38432,346.06049 167.09657,338.70693 C 166.67709,327.98716 171.09778,321.50469 179.05225,321.17518 C 183.90723,320.97406 188.52993,324.163 190.07785,328.78109 C 191.06843,331.73644 191.51418,337.15138 191.02532,340.2909 C 189.46003,350.34324 183.15305,355.07065 175.00209,352.30112 z"
         style="fill:#000000" />
      <path
         id="path3268"
         d="M 303.77199,353.62764 C 298.80115,351.93865 296.15422,347.38702 295.86646,340.03345 C 295.44698,329.31369 299.86767,322.83121 307.82214,322.5017 C 312.67712,322.30059 317.29983,325.48953 318.84774,330.10762 C 319.83832,333.06297 320.28407,338.4779 319.79521,341.61743 C 318.22992,351.66976 311.92294,356.39717 303.77199,353.62764 z"
         style="fill:#000000" />
    </g>
    <g
       id="g4843"
       transform="translate(0,-52)">
      <path
         transform="matrix(-0.4248648,0,0,0.7011366,622.69098,357.9803)"
         d="m 605.08139,267.97873 c 0,98.46791 -99.27122,178.29193 -221.72848,178.29193 -122.45727,0 -221.72849,-79.82402 -221.72849,-178.29193 0,-98.46792 99.27122,-178.291932 221.72849,-178.291932 122.45726,0 221.72848,79.824012 221.72848,178.291932 z"
         sodipodi:ry="178.29193"
         sodipodi:rx="221.72849"
         sodipodi:cy="267.97873"
         sodipodi:cx="383.35291"
         id="path3173"
         style="fill:#ffffff;fill-opacity:1;fill-rule:nonzero;stroke:#000000;stroke-width:16.03176498;stroke-linecap:butt;stroke-linejoin:miter;marker:none;marker-start:none;marker-mid:none;marker-end:none;stroke-miterlimit:4;stroke-dasharray:none;stroke-dashoffset:0;stroke-opacity:1;visibility:visible;display:inline;overflow:visible"
         sodipodi:type="arc" />
      <path
         sodipodi:nodetypes="cccc"
         id="path3175"
         d="M 446.56148,520.8697 C 456.64576,543.61176 465.92504,552.65245 480.18538,564.37077 C 484.68009,546.28355 486.41524,538.45901 483.95926,516.19965 C 474.81116,513.55818 464.60105,509.03685 446.56148,520.8697 z"
         style="fill:#f57f19;fill-opacity:1;fill-rule:evenodd;stroke:#000000;stroke-width:8.75;stroke-linecap:butt;stroke-linejoin:miter;stroke-miterlimit:4;stroke-dasharray:none;stroke-opacity:1" />
      <path
         sodipodi:nodetypes="cccc"
         id="path3177"
         d="M 368.96363,513.99624 C 363.62927,523.07171 336.60699,549.91114 335.52575,586.8741 C 334.67027,605.69534 366.64401,546.53633 370.89274,587.80843 C 368.19964,566.77887 370.90818,545.30057 368.96363,513.99624 z"
         style="fill:#000000;fill-opacity:1;fill-rule:evenodd;stroke:none;stroke-width:8.75;stroke-linecap:butt;stroke-linejoin:miter;stroke-miterlimit:4;stroke-dasharray:none;stroke-opacity:1" />
      <path
         sodipodi:nodetypes="cccc"
         id="path3179"
         d="M 550.81402,512.88171 C 555.09851,523.03487 576.80244,553.06142 577.67088,594.41363 C 578.35799,615.46984 552.67711,549.28586 549.26459,595.45891 C 551.42765,571.93214 549.25219,547.90335 550.81402,512.88171 z"
         style="fill:#000000;fill-opacity:1;fill-rule:evenodd;stroke:none;stroke-width:8.75;stroke-linecap:butt;stroke-linejoin:miter;stroke-miterlimit:4;stroke-dasharray:none;stroke-opacity:1" />
      <path
         sodipodi:nodetypes="csssc"
         id="path3182"
         d="M 473.3511,667.80457 C 470.32554,679.65267 485.40877,684.60543 502.85031,687.47072 C 525.38436,691.17261 539.8664,681.37304 531.341,661.75345 C 523.2936,643.23388 508.62286,628.45354 495.79067,641.07879 C 482.55639,654.09965 487.10755,650.79505 473.3511,667.80457 z"
         style="fill:#f57f19;fill-opacity:1;fill-rule:nonzero;stroke:#000000;stroke-width:8.75;stroke-linecap:butt;stroke-linejoin:miter;marker:none;marker-start:none;marker-mid:none;marker-end:none;stroke-miterlimit:4;stroke-dasharray:none;stroke-dashoffset:0;stroke-opacity:1;visibility:visible;display:inline;overflow:visible" />
      <path
         sodipodi:nodetypes="csssc"
         id="path3184"
         d="M 455.83644,674.65153 C 459.05059,687.23819 443.02714,692.49968 424.49837,695.54358 C 400.55965,699.47622 385.17486,689.06579 394.2317,668.22321 C 402.78074,648.54921 418.36599,632.84752 431.99808,646.25978 C 446.05732,660.09231 441.22247,656.58171 455.83644,674.65153 z"
         style="fill:#f57f19;fill-opacity:1;fill-rule:nonzero;stroke:#000000;stroke-width:8.75;stroke-linecap:butt;stroke-linejoin:miter;marker:none;marker-start:none;marker-mid:none;marker-end:none;stroke-miterlimit:4;stroke-dasharray:none;stroke-dashoffset:0;stroke-opacity:1;visibility:visible;display:inline;overflow:visible" />
      <path
         id="path3186"
         d="M 504.79882,496.66669 C 507.87915,495.62006 509.5194,492.7995 509.69772,488.24264 C 509.95766,481.59982 507.21825,477.58275 502.28902,477.37856 C 499.28049,477.25394 496.41589,479.23006 495.45667,482.0918 C 494.84283,483.92317 494.56661,487.2787 494.86955,489.2242 C 495.83953,495.45343 499.74784,498.38292 504.79882,496.66669 z"
         style="fill:#000000;stroke-width:8.75;stroke-miterlimit:4;stroke-dasharray:none" />
      <path
         id="path3188"
         d="M 425.00267,497.48871 C 428.083,496.44208 429.72325,493.62152 429.90157,489.06466 C 430.16151,482.42184 427.4221,478.40478 422.49287,478.20059 C 419.48434,478.07596 416.61974,480.05208 415.66053,482.91382 C 415.04668,484.74519 414.77046,488.10072 415.0734,490.04622 C 416.04338,496.27546 419.95169,499.20494 425.00267,497.48871 z"
         style="fill:#000000;stroke-width:8.75;stroke-miterlimit:4;stroke-dasharray:none" />
    </g>
    <text
       xml:space="preserve"
       style="font-size:22.99331284px;font-style:normal;font-weight:normal;fill:#ffffff;fill-opacity:1;stroke:none;stroke-width:1px;stroke-linecap:butt;stroke-linejoin:miter;stroke-opacity:1;font-family:Bitstream Vera Sans"
       x="1282.7811"
       y="597.9903"
       id="text4768"><tspan
         sodipodi:role="line"
         x="1282.7811"
         y="597.9903"
         style="font-size:57.86586761px;font-style:normal;font-variant:normal;font-weight:bold;font-stretch:normal;text-align:end;line-height:125%;writing-mode:lr-tb;text-anchor:end;fill:#ffffff;fill-opacity:1;font-family:Nimbus Sans L;-inkscape-font-specification:Nimbus Sans L Bold"
         id="tspan2407">Embedded Linux Experts</tspan></text>
    <text
       xml:space="preserve"
       style="font-size:12px;font-style:normal;font-weight:normal;fill:#000000;fill-opacity:1;stroke:none;stroke-width:1px;stroke-linecap:butt;stroke-linejoin:miter;stroke-opacity:1;font-family:Bitstream Vera Sans"
       x="580"
       y="233.79076"
       id="text2426"><tspan
         sodipodi:role="line"
         id="tspan2428"
         x="580"
         y="233.79076" /></text>
    <g
       id="g2428"
       transform="matrix(1.0205217,0,0,1.0205217,-23.6948,-50.392035)">
      <text
         id="text4778"
         y="309.84705"
         x="936.49573"
         style="font-size:43.62042236px;font-style:normal;font-weight:normal;fill:#ffffff;fill-opacity:1;stroke:none;stroke-width:1px;stroke-linecap:butt;stroke-linejoin:miter;stroke-opacity:1;font-family:Bitstream Vera Sans"
         xml:space="preserve"><tspan
           id="tspan2406"
           style="font-size:147.14213562px;font-style:normal;font-variant:normal;font-weight:bold;font-stretch:normal;text-align:center;line-height:125%;writing-mode:lr-tb;text-anchor:middle;fill:#ffffff;fill-opacity:1;font-family:Nimbus Sans L;-inkscape-font-specification:Nimbus Sans L Bold"
           y="309.84705"
           x="936.49573"
           sodipodi:role="line" /><tspan
           id="tspan2414"
           style="font-size:147.14213562px;font-style:normal;font-variant:normal;font-weight:bold;font-stretch:normal;text-align:center;line-height:125%;writing-mode:lr-tb;text-anchor:middle;fill:#ffffff;fill-opacity:1;font-family:Nimbus Sans L;-inkscape-font-specification:Nimbus Sans L Bold"
           y="493.77472"
           x="936.49573"
           sodipodi:role="line">Electrons</tspan></text>
      <text
         id="text2416"
         y="369.52103"
         x="756.98724"
         style="font-size:43.62042236px;font-style:normal;font-weight:normal;fill:#ffffff;fill-opacity:1;stroke:none;stroke-width:1px;stroke-linecap:butt;stroke-linejoin:miter;stroke-opacity:1;font-family:Bitstream Vera Sans"
         xml:space="preserve"><tspan
           id="tspan2418"
           style="font-size:147.14213562px;font-style:normal;font-variant:normal;font-weight:bold;font-stretch:normal;text-align:center;line-height:125%;writing-mode:lr-tb;text-anchor:middle;fill:#ffffff;fill-opacity:1;font-family:Nimbus Sans L;-inkscape-font-specification:Nimbus Sans L Bold"
           y="369.52103"
           x="756.98724"
           sodipodi:role="line">Free</tspan><tspan
           id="tspan2420"
           style="font-size:147.14213562px;font-style:normal;font-variant:normal;font-weight:bold;font-stretch:normal;text-align:center;line-height:125%;writing-mode:lr-tb;text-anchor:middle;fill:#ffffff;fill-opacity:1;font-family:Nimbus Sans L;-inkscape-font-specification:Nimbus Sans L Bold"
           y="553.44867"
           x="756.98724"
           sodipodi:role="line" /></text>
    </g>
  </g>
</svg>
