<svg version="1.1" id="Calque_1" xmlns="http://www.w3.org/2000/svg" xmlns:xlink="http://www.w3.org/1999/xlink" x="0px" y="0px" width="214px" height="48px" viewBox="0 0 214 48" enable-background="new 0 0 214 48" xml:space="preserve">
<g>
	<g>
		<path fill="#505959" d="M97.863,12.428H96.67c-1.967,0-2.891,0.926-2.891,3.161v0.541h2.467c1.156,0,2.119,0.962,2.119,2.119    c0,1.194-0.963,2.158-2.119,2.158h-2.467v13.414c0,1.427-1.156,2.582-2.584,2.582c-1.464,0-2.619-1.155-2.619-2.582V20.408h-0.58    c-1.154,0-2.118-0.964-2.118-2.158c0-1.157,0.964-2.119,2.118-2.119h0.58V15.59c0-4.779,2.467-7.709,7.439-7.709h1.848    c1.234,0,2.274,1.041,2.274,2.274C100.137,11.426,99.097,12.428,97.863,12.428z"/>
		<path fill="#505959" d="M116.943,36.403c-0.808,0-1.695-0.271-2.428-0.849c-0.385-0.27-0.73-0.655-1.002-1.117    c-1.35,1.232-3.201,1.966-5.664,1.966c-4.625,0-6.477-2.931-6.477-7.207V18.519c0-1.427,1.156-2.62,2.582-2.62    c1.424,0,2.622,1.193,2.622,2.62v10.021c0,1.772,0.462,2.969,2.696,2.969c1.426,0,2.545-0.617,3.2-1.582V18.519    c0-1.427,1.194-2.62,2.622-2.62c1.425,0,2.582,1.193,2.582,2.62v12.064c0,1.312,0.537,1.655,1.154,2.158    c0.385,0.307,0.732,0.809,0.732,1.543C119.564,35.789,118.446,36.403,116.943,36.403z"/>
		<path fill="#505959" d="M126.66,36.403c-0.811,0-1.695-0.271-2.43-0.849c-1.154-0.848-2.043-2.352-2.043-4.51V10.85    c0-1.426,1.194-2.583,2.621-2.583c1.426,0,2.582,1.157,2.582,2.583v19.733c0,1.312,0.541,1.655,1.157,2.158    c0.386,0.307,0.732,0.809,0.732,1.543C129.281,35.789,128.162,36.403,126.66,36.403z"/>
		<path fill="#505959" d="M136.373,36.403c-0.811,0-1.695-0.271-2.428-0.849c-1.156-0.848-2.043-2.352-2.043-4.51V10.85    c0-1.426,1.193-2.583,2.619-2.583c1.428,0,2.582,1.157,2.582,2.583v19.733c0,1.312,0.543,1.655,1.158,2.158    c0.383,0.307,0.73,0.809,0.73,1.543C138.993,35.789,137.875,36.403,136.373,36.403z"/>
		<path fill="#505959" d="M147.477,36.403c-2.739,0-4.205-0.347-5.554-0.81c-1.118-0.387-1.579-1.694-1.271-2.774    c0.424-1.272,1.734-1.772,2.812-1.39c1.157,0.425,2.082,0.732,4.087,0.732c1.965,0,3.12-0.732,3.12-1.889    c0-1.965-2.774-1.889-5.396-2.58c-2.35-0.58-4.586-1.775-4.586-5.552c0-4.086,3.354-6.243,7.205-6.243    c2.47,0,3.933,0.347,5.397,0.847c1.194,0.423,1.774,1.619,1.39,2.736c-0.35,1.119-1.545,1.774-2.699,1.427    c-1.465-0.501-2.467-0.732-3.777-0.732c-1.85,0-2.622,0.732-2.622,1.657c0,1.734,2.199,1.812,4.742,2.352    c2.582,0.578,5.278,1.657,5.278,5.859C155.605,34.632,151.639,36.403,147.477,36.403z"/>
		<path fill="#505959" d="M172.838,36.403c-1.042,0-1.89-0.425-2.39-0.81c-0.312-0.231-0.54-0.502-0.771-0.812    c-1.466,1.275-3.586,1.621-5.281,1.621c-4.625,0-6.939-2.389-6.939-6.014v-0.266c0-3.625,2.699-5.861,7.634-5.861h3.431v-0.731    c0-2.237-0.58-3.509-2.93-3.509c-1.619,0-2.623,0.386-3.469,0.849c-2.543,1.31-4.587-2.043-2.236-3.546    c1.658-1.079,4.086-1.426,6.129-1.426c5.59,0,7.709,2.466,7.709,8.248v6.437c0,1.312,0.424,1.655,1.002,2.158    c0.387,0.346,0.734,0.809,0.734,1.543C175.459,35.789,174.416,36.403,172.838,36.403z M168.52,28.001h-2.814    c-2.271,0-3.081,0.924-3.081,2.196v0.271c0,1.428,0.886,2.234,2.89,2.234c1.775,0,3.008-0.964,3.008-3.007v-1.694H168.52z"/>
		<path fill="#505959" d="M188.525,33.821c-0.926,2.197-2.117,2.582-3.432,2.582c-1.461,0-2.543-0.425-3.428-2.582    c-1.773-4.51-3.74-9.945-5.203-14.84c-0.58-1.85,0.885-3.083,2.35-3.083c0.928,0,1.812,0.539,2.197,1.694    c1.195,3.818,2.697,8.441,4.123,12.296c1.428-3.816,2.971-8.403,4.238-12.296c0.387-1.155,1.311-1.694,2.275-1.694    c1.5,0,3.006,1.309,2.391,3.197C192.418,24.069,190.453,29.273,188.525,33.821z"/>
		<path fill="#505959" d="M210.227,27.771h-9.211v0.73c0,2.312,1.041,3.662,3.197,3.662c1.93,0,2.969-0.31,4.318-0.849    c1.037-0.424,2.197,0.192,2.504,1.312c0.348,1.155-0.113,2.119-1.078,2.543c-2.119,0.965-4.201,1.233-6.051,1.233    c-5.975,0-8.096-3.931-8.096-8.44v-3.584c0-4.51,2.506-8.479,8.131-8.479c5.859,0,8.059,3.893,8.059,8.363v1.657    C212,26.96,211.189,27.771,210.227,27.771z M204.061,19.945c-2.043,0-3.045,1.233-3.045,3.432v0.5h5.975v-0.5    C206.99,21.178,206.104,19.945,204.061,19.945z"/>
	</g>
	<g>
		<g>
			
				<linearGradient id="SVGID_1_" gradientUnits="userSpaceOnUse" x1="62.7773" y1="-78.5107" x2="100.5526" y2="-54.9062" gradientTransform="matrix(1 0 0 -1 -57.5 -22)">
				<stop offset="0" style="stop-color:#000000;stop-opacity:0"/>
				<stop offset="1" style="stop-color:#000000;stop-opacity:0.6"/>
			</linearGradient>
			<polygon fill="url(#SVGID_1_)" points="40.084,47.285 0,47.285 20.041,35.712    "/>
			<polygon fill="#A83232" points="60.127,35.712 40.084,47.285 20.041,35.712 20.041,12.57 40.084,1 60.127,12.57    "/>
			<g>
				<path fill="#F04848" d="M52.298,16.002c-1.033,0.349-2.023,0.673-2.973,0.984c-7.024,2.302-12.135,3.978-20.314,10.137      l2.78,5.062C37.015,25.091,44.425,19.868,52.298,16.002z"/>
				<path fill="#F04848" d="M52.161,13.794c1.3-0.44,2.677-0.922,4.154-1.469L40.084,2.956l-17.445,10.07      C31.89,15.836,41.987,16.097,52.161,13.794z"/>
				<path fill="#F04848" d="M38.552,17.499c-5.527,0-10.929-0.775-16.089-2.298l5.508,10.026c5.384-4.031,9.479-6.169,13.66-7.815      C40.6,17.463,39.573,17.499,38.552,17.499z"/>
				<path fill="#F04848" d="M32.933,34.263l7.151,13.021L57.22,16.088C47.858,20.092,38.778,25.87,32.933,34.263z"/>
			</g>
		</g>
	</g>
</g>
</svg>